<svg width="20" height="20" viewBox="0 0 20 20" fill="none" xmlns="http://www.w3.org/2000/svg">
<path d="M10 1.5C11.1097 1.5 12.0758 2.10424 12.5947 3H14.5C15.3284 3 16 3.67157 16 4.5V16.5C16 17.3284 15.3284 18 14.5 18H5.5C4.67157 18 4 17.3284 4 16.5V4.5C4 3.67157 4.67157 3 5.5 3H7.40527C7.92423 2.10424 8.89028 1.5 10 1.5ZM5.5 4C5.22386 4 5 4.22386 5 4.5V16.5C5 16.7761 5.22386 17 5.5 17H14.5C14.7761 17 15 16.7761 15 16.5V4.5C15 4.22386 14.7761 4 14.5 4H12.958C12.9853 4.16263 13 4.32961 13 4.5V5.5C13 5.77614 12.7761 6 12.5 6H7.5C7.22386 6 7 5.77614 7 5.5V4.5C7 4.32961 7.0147 4.16263 7.04199 4H5.5ZM10 2.5C8.89543 2.5 8 3.39543 8 4.5V5H12V4.5C12 3.39543 11.1046 2.5 10 2.5Z" fill="#3D3D3A"/>
</svg>
