<svg width="21" height="21" viewBox="0 0 21 21" fill="none" xmlns="http://www.w3.org/2000/svg">
<path d="M10.1003 4.45833C11.5753 4.45833 12.8962 4.96667 13.9378 5.95833L16.792 3.10417C15.0587 1.49167 12.7962 0.5 10.1003 0.5C6.19199 0.5 2.81283 2.74167 1.16699 6.00833L4.49199 8.5875C5.27949 6.21667 7.49199 4.45833 10.1003 4.45833Z" fill="#EA4335"/>
<path d="M19.6751 10.7292C19.6751 10.075 19.6126 9.44171 19.5168 8.83337H10.1001V12.5917H15.4918C15.2501 13.825 14.5501 14.875 13.5001 15.5834L16.7209 18.0834C18.6001 16.3417 19.6751 13.7667 19.6751 10.7292Z" fill="#4285F4"/>
<path d="M4.4876 12.4125C4.2876 11.8083 4.17093 11.1666 4.17093 10.5C4.17093 9.8333 4.28343 9.19163 4.4876 8.58747L1.1626 6.0083C0.483431 7.3583 0.100098 8.8833 0.100098 10.5C0.100098 12.1166 0.483431 13.6416 1.16676 14.9916L4.4876 12.4125Z" fill="#FBBC05"/>
<path d="M10.1001 20.5C12.8001 20.5 15.0709 19.6125 16.7209 18.0792L13.5001 15.5792C12.6043 16.1833 11.4501 16.5375 10.1001 16.5375C7.49176 16.5375 5.27926 14.7792 4.4876 12.4083L1.1626 14.9875C2.8126 18.2583 6.19176 20.5 10.1001 20.5Z" fill="#34A853"/>
</svg>
